<?xml version="1.0" encoding="UTF-8"?>
<svg xmlns="http://www.w3.org/2000/svg" xmlns:xlink="http://www.w3.org/1999/xlink" width="32pt" height="32pt" viewBox="0 0 32 32" version="1.1">
<g id="surface1">
<path style=" stroke:none;fill-rule:nonzero;fill:rgb(96.470588%,88.627451%,40%);fill-opacity:1;" d="M 31.074219 11.890625 L 7.378906 16.492188 L 6.597656 12.464844 L 30.230469 7.875 C 30.570312 7.808594 30.898438 8.03125 30.964844 8.371094 L 31.519531 11.230469 C 31.578125 11.535156 31.378906 11.828125 31.074219 11.890625 Z M 31.074219 11.890625 "/>
<path style=" stroke:none;fill-rule:nonzero;fill:rgb(94.509804%,82.745098%,20%);fill-opacity:1;" d="M 7.378906 16.492188 L 31.074219 11.890625 C 31.378906 11.828125 31.578125 11.535156 31.519531 11.230469 L 30.964844 8.371094 C 30.898438 8.03125 30.570312 7.808594 30.230469 7.875 L 29.476562 8.023438 L 29.882812 10.132812 C 29.949219 10.46875 29.730469 10.796875 29.390625 10.863281 L 7.125 15.1875 Z M 7.378906 16.492188 "/>
<path style=" stroke:none;fill-rule:nonzero;fill:rgb(21.176471%,36.862745%,49.019608%);fill-opacity:1;" d="M 30.976562 8.425781 L 28.273438 12.433594 L 31.074219 11.890625 C 31.378906 11.828125 31.578125 11.535156 31.519531 11.230469 Z M 30.976562 8.425781 "/>
<path style=" stroke:none;fill-rule:nonzero;fill:rgb(16.862745%,30.196078%,40%);fill-opacity:1;" d="M 31.519531 11.230469 L 30.976562 8.425781 L 29.871094 10.0625 L 29.882812 10.132812 C 29.949219 10.46875 29.730469 10.796875 29.390625 10.863281 L 29.324219 10.875 L 28.273438 12.433594 L 31.074219 11.890625 C 31.378906 11.828125 31.578125 11.535156 31.519531 11.230469 Z M 31.519531 11.230469 "/>
<path style=" stroke:none;fill-rule:nonzero;fill:rgb(21.176471%,36.862745%,49.019608%);fill-opacity:1;" d="M 20.945312 13.855469 L 24.535156 13.160156 L 27.777344 8.351562 L 24.1875 9.046875 Z M 20.945312 13.855469 "/>
<path style=" stroke:none;fill-rule:nonzero;fill:rgb(21.176471%,36.862745%,49.019608%);fill-opacity:1;" d="M 17.355469 14.554688 L 20.601562 9.746094 L 17.011719 10.441406 L 13.765625 15.25 Z M 17.355469 14.554688 "/>
<path style=" stroke:none;fill-rule:nonzero;fill:rgb(21.176471%,36.862745%,49.019608%);fill-opacity:1;" d="M 9.835938 11.835938 L 7.226562 15.703125 L 7.378906 16.492188 L 10.179688 15.949219 L 13.421875 11.140625 Z M 9.835938 11.835938 "/>
<path style=" stroke:none;fill-rule:nonzero;fill:rgb(16.862745%,30.196078%,40%);fill-opacity:1;" d="M 21.996094 12.300781 L 20.945312 13.855469 L 24.535156 13.160156 L 25.585938 11.601562 Z M 21.996094 12.300781 "/>
<path style=" stroke:none;fill-rule:nonzero;fill:rgb(16.862745%,30.196078%,40%);fill-opacity:1;" d="M 14.816406 13.695312 L 13.765625 15.25 L 17.355469 14.554688 L 18.40625 12.996094 Z M 14.816406 13.695312 "/>
<path style=" stroke:none;fill-rule:nonzero;fill:rgb(16.862745%,30.196078%,40%);fill-opacity:1;" d="M 7.640625 15.089844 L 7.226562 15.703125 L 7.378906 16.492188 L 10.179688 15.949219 L 11.230469 14.390625 Z M 7.640625 15.089844 "/>
<path style=" stroke:none;fill-rule:nonzero;fill:rgb(89.411765%,58.431373%,25.882353%);fill-opacity:1;" d="M 8.46875 21.980469 L 1.65625 21.980469 L 1.65625 11.429688 C 1.65625 10.296875 2.574219 9.382812 3.703125 9.382812 L 6.425781 9.382812 C 7.554688 9.382812 8.46875 10.296875 8.46875 11.429688 Z M 8.46875 21.980469 "/>
<path style=" stroke:none;fill-rule:nonzero;fill:rgb(87.45098%,45.882353%,10.980392%);fill-opacity:1;" d="M 6.425781 9.382812 L 4.878906 9.382812 C 6.007812 9.382812 6.988281 10.296875 6.988281 11.425781 L 6.988281 21.980469 L 8.46875 21.980469 L 8.46875 11.425781 C 8.46875 10.296875 7.554688 9.382812 6.425781 9.382812 Z M 6.425781 9.382812 "/>
<path style=" stroke:none;fill-rule:nonzero;fill:rgb(21.176471%,36.862745%,49.019608%);fill-opacity:1;" d="M 6.648438 14.390625 C 6.648438 15.265625 5.941406 15.972656 5.066406 15.972656 C 4.195312 15.972656 3.488281 15.265625 3.488281 14.390625 C 3.488281 13.519531 4.195312 12.808594 5.066406 12.808594 C 5.941406 12.808594 6.648438 13.519531 6.648438 14.390625 Z M 6.648438 14.390625 "/>
<path style=" stroke:none;fill-rule:nonzero;fill:rgb(16.862745%,30.196078%,40%);fill-opacity:1;" d="M 5.617188 12.90625 C 5.679688 13.078125 5.710938 13.261719 5.710938 13.457031 C 5.710938 14.328125 5.003906 15.035156 4.132812 15.035156 C 3.9375 15.035156 3.753906 15 3.585938 14.9375 C 3.808594 15.542969 4.386719 15.972656 5.066406 15.972656 C 5.941406 15.972656 6.648438 15.265625 6.648438 14.390625 C 6.648438 13.710938 6.21875 13.128906 5.617188 12.90625 Z M 5.617188 12.90625 "/>
<path style=" stroke:none;fill-rule:nonzero;fill:rgb(21.176471%,36.862745%,49.019608%);fill-opacity:1;" d="M 9.222656 24.140625 L 0.90625 24.140625 C 0.664062 24.140625 0.46875 23.945312 0.46875 23.703125 L 0.46875 21.730469 C 0.46875 21.488281 0.664062 21.292969 0.90625 21.292969 L 9.222656 21.292969 C 9.464844 21.292969 9.660156 21.488281 9.660156 21.730469 L 9.660156 23.703125 C 9.660156 23.945312 9.464844 24.140625 9.222656 24.140625 Z M 9.222656 24.140625 "/>
<path style=" stroke:none;fill-rule:nonzero;fill:rgb(16.862745%,30.196078%,40%);fill-opacity:1;" d="M 9.222656 21.292969 L 8.710938 21.292969 L 8.710938 22.753906 C 8.710938 22.992188 8.515625 23.1875 8.273438 23.1875 L 0.46875 23.1875 L 0.46875 23.703125 C 0.46875 23.945312 0.664062 24.140625 0.90625 24.140625 L 9.222656 24.140625 C 9.464844 24.140625 9.660156 23.945312 9.660156 23.703125 L 9.660156 21.730469 C 9.660156 21.488281 9.464844 21.292969 9.222656 21.292969 Z M 9.222656 21.292969 "/>
<path style=" stroke:none;fill-rule:nonzero;fill:rgb(0%,0%,0%);fill-opacity:1;" d="M 31.980469 11.144531 L 31.410156 8.214844 C 31.28125 7.675781 30.695312 7.292969 30.144531 7.414062 L 8.9375 11.535156 L 8.9375 11.425781 C 8.9375 10.042969 7.8125 8.914062 6.425781 8.914062 L 3.703125 8.914062 C 2.316406 8.914062 1.1875 10.042969 1.1875 11.425781 L 1.1875 20.824219 L 0.90625 20.824219 C 0.40625 20.824219 0 21.230469 0 21.730469 L 0 23.703125 C 0 24.203125 0.40625 24.609375 0.90625 24.609375 L 5.835938 24.609375 C 6.09375 24.609375 6.304688 24.398438 6.304688 24.140625 C 6.304688 23.878906 6.09375 23.671875 5.835938 23.671875 L 0.9375 23.671875 L 0.9375 21.761719 L 9.191406 21.761719 L 9.191406 23.671875 L 8.164062 23.671875 C 7.90625 23.671875 7.695312 23.878906 7.695312 24.140625 C 7.695312 24.398438 7.90625 24.609375 8.164062 24.609375 L 9.222656 24.609375 C 9.722656 24.609375 10.128906 24.203125 10.128906 23.703125 L 10.128906 21.730469 C 10.128906 21.230469 9.722656 20.824219 9.222656 20.824219 L 8.9375 20.824219 L 8.9375 16.667969 L 31.167969 12.347656 C 31.722656 12.242188 32.089844 11.699219 31.980469 11.144531 Z M 30.703125 9.476562 L 31.046875 11.257812 C 31.066406 11.34375 31.007812 11.425781 30.925781 11.441406 L 29.144531 11.789062 Z M 30.320312 8.335938 C 30.328125 8.332031 30.335938 8.332031 30.34375 8.332031 L 27.84375 12.039062 L 25.554688 12.484375 L 26.667969 10.835938 C 26.8125 10.621094 26.753906 10.328125 26.539062 10.183594 C 26.328125 10.039062 26.035156 10.097656 25.890625 10.3125 L 24.253906 12.738281 L 21.964844 13.179688 L 24.46875 9.472656 Z M 18.378906 13.878906 L 20.878906 10.167969 L 23.167969 9.722656 L 20.664062 13.433594 Z M 11.199219 15.273438 L 13.703125 11.5625 L 15.992188 11.117188 L 13.488281 14.828125 Z M 19.578125 10.421875 L 17.078125 14.132812 L 14.789062 14.574219 L 17.292969 10.867188 Z M 2.125 20.824219 L 2.125 11.425781 C 2.125 10.558594 2.832031 9.851562 3.703125 9.851562 L 6.425781 9.851562 C 7.296875 9.851562 8.003906 10.558594 8.003906 11.425781 L 8.003906 20.824219 Z M 8.9375 14 L 10.113281 12.261719 L 12.402344 11.816406 L 9.898438 15.527344 L 8.9375 15.710938 Z M 8.9375 14 "/>
<path style=" stroke:none;fill-rule:nonzero;fill:rgb(0%,0%,0%);fill-opacity:1;" d="M 5.773438 12.46875 C 5.257812 12.277344 4.703125 12.300781 4.207031 12.53125 C 3.710938 12.761719 3.332031 13.171875 3.144531 13.6875 C 3.054688 13.929688 3.179688 14.199219 3.421875 14.285156 C 3.664062 14.375 3.933594 14.25 4.023438 14.007812 C 4.21875 13.441406 4.894531 13.128906 5.449219 13.347656 C 6.363281 13.644531 6.421875 15.027344 5.535156 15.402344 C 5.265625 15.527344 4.964844 15.539062 4.683594 15.4375 C 4.441406 15.347656 4.171875 15.472656 4.082031 15.714844 C 3.996094 15.957031 4.121094 16.226562 4.363281 16.316406 C 4.875 16.503906 5.433594 16.480469 5.929688 16.25 C 6.425781 16.019531 6.804688 15.609375 6.992188 15.097656 C 7.382812 14.035156 6.835938 12.855469 5.773438 12.46875 Z M 5.773438 12.46875 "/>
<path style=" stroke:none;fill-rule:nonzero;fill:rgb(0%,0%,0%);fill-opacity:1;" d="M 4.261719 18.195312 C 3.933594 18.058594 3.554688 18.214844 3.417969 18.542969 C 3.28125 18.875 3.4375 19.25 3.769531 19.386719 C 4.097656 19.523438 4.472656 19.367188 4.609375 19.039062 C 4.746094 18.710938 4.589844 18.332031 4.261719 18.195312 Z M 4.261719 18.195312 "/>
<path style=" stroke:none;fill-rule:nonzero;fill:rgb(0%,0%,0%);fill-opacity:1;" d="M 6.117188 18.140625 C 5.761719 18.140625 5.472656 18.429688 5.472656 18.785156 C 5.472656 19.140625 5.761719 19.429688 6.117188 19.429688 C 6.472656 19.429688 6.761719 19.140625 6.761719 18.785156 C 6.761719 18.429688 6.472656 18.140625 6.117188 18.140625 Z M 6.117188 18.140625 "/>
</g>
</svg>
